<?xml version="1.0" encoding="UTF-8"?><svg id="_レイヤー_1" xmlns="http://www.w3.org/2000/svg" viewBox="0 0 368.23 374.62"><defs><style>.cls-1{fill:#f44b54;stroke-width:.5px;}.cls-1,.cls-2,.cls-3{fill-rule:evenodd;stroke:#f44b54;stroke-miterlimit:10;}.cls-4{fill:#fff;}.cls-2{stroke-width:36.18px;}.cls-2,.cls-3{fill:none;}.cls-3{stroke-width:28.22px;}</style></defs><path class="cls-4" d="M288.39,77.62c12.3,0,22.31,10.01,22.31,22.31v212.38c0,12.3-10.01,22.31-22.31,22.31H76c-12.3,0-22.31-10.01-22.31-22.31V99.92c0-12.3,10.01-22.31,22.31-22.31h212.38m0-40H76c-34.41,0-62.31,27.9-62.31,62.31v212.38c0,34.41,27.9,62.31,62.31,62.31h212.38c34.41,0,62.31-27.9,62.31-62.31V99.92c0-34.41-27.9-62.31-62.31-62.31h0Z"/><g><polygon class="cls-2" points="331.73 36.75 175.61 274.89 191.39 307.85 347.51 69.7 331.73 36.75"/><polygon class="cls-3" points="21.51 203.87 163.74 333.09 185.64 314.9 43.4 185.68 21.51 203.87"/><polygon class="cls-1" points="163.75 351.77 188.65 344.43 182.66 324.37 157.75 331.71 163.75 351.77"/></g></svg>