<?xml version="1.0" encoding="UTF-8"?><svg id="_レイヤー_1" xmlns="http://www.w3.org/2000/svg" viewBox="0 0 495.5 467.09"><defs><style>.cls-1{opacity:.9;}.cls-1,.cls-2{fill:#fff;}.cls-2,.cls-3,.cls-4{opacity:.95;}.cls-3{fill:#00bf15;}.cls-4{fill:#006837;}</style></defs><g><path class="cls-3" d="M202.46,2.36c52.59,24.01,92.67,68.34,105.89,125.16,24.1,103.55-50.11,209.31-165.76,236.23-47.05,10.95-93.7,7.16-134.12-8.15,51.03,74.84,144.5,114.57,238.02,92.8,121.57-28.3,197.18-149.78,168.88-271.35C391.64,75.1,302.36,5.49,202.46,2.36Z"/><path class="cls-2" d="M189.57,.04c57.06,22.28,101.14,67.98,115.04,127.69,23.73,101.93-49.49,206.08-163.52,232.63-49.86,11.61-99.28,6.45-141.09-11.55,50.2,80.43,147.64,123.99,245.14,101.3,122.64-28.55,198.92-151.11,170.38-273.75C390.7,69.71,294.79-1.86,189.57,.04Z"/></g><g><path class="cls-4" d="M275.46,13.36c52.59,24.01,92.67,68.34,105.89,125.16,24.1,103.55-50.11,209.31-165.76,236.23-47.05,10.95-93.7,7.16-134.12-8.15,51.03,74.84,144.5,114.57,238.02,92.8,121.57-28.3,197.18-149.78,168.88-271.35C464.64,86.1,375.36,16.49,275.46,13.36Z"/><path class="cls-1" d="M263.57,11.04c57.06,22.28,101.14,67.98,115.04,127.69,23.73,101.93-49.49,206.08-163.52,232.63-49.86,11.61-99.28,6.45-141.09-11.55,50.2,80.43,147.64,123.99,245.14,101.3,122.64-28.55,198.92-151.11,170.38-273.75C464.7,80.71,368.79,9.14,263.57,11.04Z"/></g></svg>