<?xml version="1.0" encoding="UTF-8"?><svg id="_レイヤー_1" xmlns="http://www.w3.org/2000/svg" viewBox="0 0 408.82 99.92"><defs><style>.cls-1{fill:#deefca;}.cls-1,.cls-2,.cls-3,.cls-4,.cls-5,.cls-6,.cls-7,.cls-8{opacity:.3;}.cls-2{fill:#c4e19e;}.cls-3{fill:#a6d26a;}.cls-4{fill:#a7d36e;}.cls-5{fill:#c2e09b;}.cls-6{fill:#8bc53f;}.cls-7{fill:#e2f1d0;}.cls-8{fill:#006837;}</style></defs><path class="cls-8" d="M407.82,30.75c-.44-.32-.87-.65-1.3-.99-.43-.12-.84-.28-1.15-.52-.31-.24-.63-.48-.93-.72-.57-.25-1.13-.56-1.7-.97-.1-.07-.18-.16-.27-.23-35.08-10.07-71.03-14.98-107.37-16.47-25.07-1.03-50.21-.78-75.3,1.5-30.43,2.76-60.47,7.39-89.71,16.41-18.51,5.71-36.61,12.54-52.11,24.56-8.57,6.65-16.72,13.99-19.34,25.25-1.74,7.48-1.88,14.85,3.47,21.25h54.97c.6-12.48,7.67-21.31,16.78-28.74,16.51-13.45,36.03-20.93,56.09-27.07,27.58-8.44,55.91-13.02,84.58-15.61,34.34-3.11,68.69-3.08,103.03,.17,10.4,.99,20.78,2.08,31.18,3.13,.04-.04,.07-.08,.1-.11-.24-.21-.48-.42-.71-.64,.87,.8-.06,0-.29-.18Z"/><path class="cls-6" d="M402.73,27.55c-.71-.51-1.22-1.13-1.57-1.78-.14-.14-.29-.28-.44-.42-1.31-.54-2.75-.85-4.03-1.31C355.42,9.33,312.95,.99,269.04,.51c-1.69,0-3.38,0-5.07,0-1.94,0-3.88,0-5.82,0-2.39-.26-4.85,.58-7.17-.51h-34.98c-2.32,1.09-4.77,.26-7.15,.51-1.63,0-3.27,0-4.9,0-1.63,0-3.26,0-4.89,0-6.99-.31-13.99,.08-20.92,.65-27.75,2.28-55.09,6.98-81.91,14.6-24.13,6.86-47.57,15.41-68.18,30.04C14.69,55.29,2.19,65.86,.13,83.83c0,3.97,.24,7.95-.08,11.89-.26,3.21,.33,4.23,3.95,4.19,19.36-.24,38.73-.11,58.09-.11-7.08-16.8-1.21-29.93,11.56-41.24,10.36-9.18,22.39-15.52,35.09-20.63,44.41-17.86,91.11-23.83,138.47-25.72,18.27-.73,36.59-.56,54.89,.57,23.59,1.45,47.01,4.01,70.15,8.82,10.71,2.22,21.34,4.86,32,7.31-.07-.22-.17-.41-.26-.6-.42-.22-.85-.46-1.27-.77Z"/><path class="cls-4" d="M216.01,0c-2.14,1.92-4.7,.65-7.06,.92-.28-.23-.37-.44-.26-.64,.11-.19,.22-.29,.32-.29h7Z"/><path class="cls-3" d="M258.09,.87c-2.38-.15-4.93,1.01-7.1-.87h7c.3,.16,.41,.34,.34,.55-.07,.21-.15,.32-.24,.32Z"/><path class="cls-5" d="M258.09,.87c-.05-.29-.08-.58-.1-.87h6c.31,.18,.42,.37,.34,.57-.09,.21-.18,.32-.28,.32-1.98,0-3.97-.01-5.95-.02Z"/><path class="cls-1" d="M198.96,.83c.02-.28,.04-.55,.06-.83h5c.34,.21,.44,.41,.31,.58-.13,.16-.25,.24-.38,.24-1.66,0-3.32,0-4.98,.01Z"/><path class="cls-2" d="M203.94,.82c.03-.27,.06-.54,.08-.82h5c0,.31-.02,.62-.06,.92-1.67-.04-3.34-.07-5.01-.11Z"/><path class="cls-7" d="M264.04,.89c-.05-.29-.07-.59-.06-.89h5c-.01,.29,0,.58,.04,.86-1.66,0-3.32,.01-4.98,.02Z"/></svg>