<?xml version="1.0" encoding="UTF-8"?><svg id="_レイヤー_1" xmlns="http://www.w3.org/2000/svg" xmlns:xlink="http://www.w3.org/1999/xlink" viewBox="0 0 1620.47 2087.01"><defs><style>.cls-1{fill:none;}.cls-2{fill:url(#_名称未設定グラデーション_12);}.cls-2,.cls-3,.cls-4,.cls-5,.cls-6,.cls-7,.cls-8,.cls-9,.cls-10,.cls-11,.cls-12,.cls-13,.cls-14,.cls-15,.cls-16,.cls-17,.cls-18{opacity:.3;}.cls-3{fill:url(#_名称未設定グラデーション_13);}.cls-4{fill:url(#_名称未設定グラデーション_11);}.cls-5{fill:url(#_名称未設定グラデーション_14);}.cls-19{clip-path:url(#clippath);}.cls-20{fill:lime;}.cls-21,.cls-15{fill:aqua;}.cls-22,.cls-16{fill:#009245;}.cls-23,.cls-24,.cls-12{fill:#ff0;}.cls-25,.cls-11{fill:#fbb03b;}.cls-26,.cls-10{fill:#8cc63f;}.cls-6{fill:url(#_名称未設定グラデーション_14-2);}.cls-27,.cls-28,.cls-24,.cls-29{opacity:.2;}.cls-27,.cls-17{fill:#29abe2;}.cls-28,.cls-9{fill:#ff7bac;}.cls-8{fill:url(#_名称未設定グラデーション_5);}.cls-13{fill:#00a99d;}.cls-14{fill:#006837;}.cls-18{fill:#39b54a;}.cls-30{fill:url(#_名称未設定グラデーション_7);}</style><clipPath id="clippath"><rect class="cls-1" x="496.54" y="499.01" width="1005" height="1588"/></clipPath><linearGradient id="_名称未設定グラデーション_11" x1="598.54" y1="1914.69" x2="1089.28" y2="1626.88" gradientUnits="userSpaceOnUse"><stop offset="0" stop-color="#ff0"/><stop offset=".99" stop-color="#8cc63f"/></linearGradient><linearGradient id="_名称未設定グラデーション_5" x1="598.54" y1="1914.69" x2="1089.28" y2="1626.88" gradientUnits="userSpaceOnUse"><stop offset="0" stop-color="#ff0"/><stop offset="1" stop-color="#009245"/></linearGradient><linearGradient id="_名称未設定グラデーション_12" x1="673.4" y1="1866.58" x2="979.12" y2="1687.28" gradientUnits="userSpaceOnUse"><stop offset="0" stop-color="#fbb03b"/><stop offset="1" stop-color="#fcee21"/></linearGradient><linearGradient id="_名称未設定グラデーション_7" x1="631.41" y1="1697.01" x2="1109.3" y2="1697.01" gradientUnits="userSpaceOnUse"><stop offset="0" stop-color="aqua"/><stop offset="1" stop-color="#39b54a" stop-opacity=".3"/></linearGradient><linearGradient id="_名称未設定グラデーション_14" x1="0" y1="559.04" x2="195.58" y2="559.04" gradientUnits="userSpaceOnUse"><stop offset="0" stop-color="#ff0"/><stop offset="1" stop-color="#8cc63f"/></linearGradient><linearGradient id="_名称未設定グラデーション_13" x1="198.65" y1="870.76" x2="1620.47" y2="870.76" gradientUnits="userSpaceOnUse"><stop offset="0" stop-color="#ff0"/><stop offset="1" stop-color="#006837"/></linearGradient><linearGradient id="_名称未設定グラデーション_14-2" x1="147.3" y1="564.08" x2="262.65" y2="564.08" xlink:href="#_名称未設定グラデーション_14"/></defs><g class="cls-19"><path class="cls-4" d="M984.51,1576.35l-185.66-67.58-185.66,67.58-98.79,171.11,34.31,194.58,151.35,127h197.58l151.35-127,34.31-194.58-98.79-171.11Zm-30.04,307.56l-94.02,78.89h-122.73l-94.02-78.89-21.31-120.87,61.37-106.29,115.33-41.98,115.33,41.98,61.37,106.29-21.31,120.87Z"/><path class="cls-8" d="M984.51,1576.35l-185.66-67.58-185.66,67.58-98.79,171.11,34.31,194.58,151.35,127h197.58l151.35-127,34.31-194.58-98.79-171.11Zm39.7,350.1l-136.13,114.23h-177.7l-136.13-114.23-30.86-175,88.85-153.9,166.99-60.78,166.99,60.78,88.85,153.9-30.86,175Z"/><path class="cls-2" d="M914.35,1656.65l-116-41.85-116,41.85-61.72,105.98,21.44,120.51,94.56,78.66h123.44l94.56-78.66,21.44-120.51-61.72-105.98Zm24.8,216.84l-85.05,70.75h-111.02l-85.05-70.75-19.28-108.39,55.51-95.32,104.33-37.64,104.33,37.64,55.51,95.32-19.28,108.39Z"/><polygon class="cls-30" points="1010.51 1543.35 824.85 1475.77 639.18 1543.35 631.41 1556.81 812.85 1490.77 998.51 1558.35 1097.3 1729.45 1064.01 1918.24 1074.99 1909.03 1109.3 1714.45 1010.51 1543.35"/><polygon class="cls-15" points="1183.23 526.3 982.31 812.67 1217.38 540.53 1217.36 540.52 1217.28 540.63 1183.23 526.3"/><polygon class="cls-15" points="1183.21 526.29 1183.23 526.3 1183.31 526.18 1217.36 540.52 1366.66 327.73 1369.11 311.08 1183.21 526.29"/><polygon class="cls-11" points="1418.29 254.15 1372.78 306.83 1370.52 322.23 1418.29 254.15"/><polygon class="cls-11" points="1344.54 499.07 1403.82 95.56 1400.9 94.69 1338.72 517.91 1519.64 130.29 1517.03 129.5 1344.54 499.07"/><polygon class="cls-15" points="1423.29 330.33 1413.85 346.21 1413.87 346.22 1355.38 425.25 1344.54 499.07 1423.29 330.33"/><polygon class="cls-17" points="1597.26 299.28 1496.5 207.22 1437.14 307.04 1340.02 515.14 1597.26 299.28"/><polygon class="cls-17" points="1351.58 430.39 1223.89 602.94 1212.54 622.1 1339 515.99 1351.58 430.39"/><polygon class="cls-9" points="1411.87 349.22 1411.85 349.21 1411.78 349.33 1376.75 337.6 1365.48 356.56 1355.33 425.62 1411.87 349.22"/><polygon class="cls-28" points="1205.79 627.7 1351.53 430.76 1361.43 363.37 1202.74 630.24 1205.79 627.7"/><polygon class="cls-9" points="1411.85 349.21 1424.08 328.64 1493.64 179.6 1376.73 337.6 1376.75 337.6 1376.82 337.48 1411.85 349.21"/><polygon class="cls-14" points="1590.64 48.53 1501.71 168.7 1437.93 305.35 1590.64 48.53"/><polygon class="cls-24" points="1352.24 309.43 1205.13 626.82 1361.52 362.74 1368.8 313.14 1352.24 309.43"/><polygon class="cls-12" points="1388.35 317.39 1388.29 317.52 1371.76 313.81 1365.57 355.89 1388.37 317.39 1388.35 317.39"/><polygon class="cls-12" points="1388.35 317.39 1535.47 0 1379.06 264.11 1371.78 313.67 1388.35 317.39"/><polygon class="cls-12" points="1368.83 313.01 1375 270.96 1352.22 309.42 1352.24 309.43 1352.3 309.3 1368.83 313.01"/><polygon class="cls-17" points="1198.38 562.53 977.22 818.56 1206.71 626 1309.65 403.91 1198.36 562.52 1198.38 562.53"/><polygon class="cls-13" points="1379.01 243.66 1175.31 535.45 1333.64 352.15 1343.24 331.43 1343.22 331.42 1373.67 280.01 1375 270.96 1375 270.96 1379.01 243.66"/><polygon class="cls-14" points="1379.06 264.11 1379.06 264.11 1377.73 273.16 1445.15 159.31 1439.15 153.83 1383.51 233.78 1379.09 263.88 1379.06 264.11"/><polygon class="cls-12" points="1361.43 363.37 1365.48 356.56 1365.57 355.89 1361.52 362.74 1361.43 363.37"/><polygon class="cls-12" points="1368.83 313.01 1368.8 313.14 1371.76 313.81 1371.78 313.67 1368.83 313.01"/><path class="cls-5" d="M172.05,495.93h-.02s23.55-79.62,23.55-79.62c-31.49-2.17-60.87-2.8-87.83-1.84L0,675.12c4.13,4.42,8.4,8.87,12.81,13.35,34.93,2.82,73.83,8.06,116.08,15.58l43.17-208.12Z"/><g class="cls-7"><polygon class="cls-20" points="83.31 924.8 172.09 496.75 209.34 498.66 83.31 924.8"/><polygon class="cls-20" points="298.07 70.79 209.28 498.84 172.03 496.93 298.07 70.79"/></g><g><path class="cls-16" d="M1182.68,1236.35c-.07-99.44,50.88-193.5,135.7-247.41-22.84,2.03-45.81,6.78-68.48,14.48-65.96,22.4-118.71,66.02-153.27,120.63l86.05,112.29Z"/><polygon class="cls-14" points="1185.65 1277.55 1138.72 1236.77 1185.65 1277.55 1185.65 1277.55"/><path class="cls-18" d="M1198.31,1330.38c-5.93-17.46-10.1-35.09-12.64-52.71l-115.61-100.45c-23.24,61.37-26.12,130.87-3.36,197.86,52.04,153.22,218.44,235.24,371.67,183.2,22.68-7.7,43.78-17.93,63.13-30.23-131.49,11.7-258.84-67.13-303.18-197.68Z"/></g><g><g class="cls-29"><polygon class="cls-20" points="1270.27 1351.08 940.28 1064.35 960.16 1032.79 1270.27 1351.08"/></g><g><polygon class="cls-27" points="724.1 827.7 960.15 1032.8 960.16 1032.79 1270.27 1351.08 940.42 1064.47 940.41 1064.48 698.75 816.45 609.03 776.64 1271.5 1352.26 944.47 925.49 724.1 827.7"/><g class="cls-29"><polygon class="cls-20" points="697.71 815.38 940.41 1064.48 960.29 1032.92 722.68 826.46 697.71 815.38"/></g></g></g><path class="cls-3" d="M1118.28,701.19l-140.41,117.82-.56,.65,.31-.44-.39,.33,.86-1,97.04-138.3c-51.71-24.6-105.6-48.56-161.29-71.58-195.81-80.95-384.14-137.99-543.4-168.58v.08s-171.78,277.71-171.78,277.71c153.34,33.32,340.99,91.88,540.18,171.54l-129.81-112.79,89.71,39.81,91.48,93.89h0l-92.52-94.96,24.97,11.08,123.9,107.65s0,0,0,0l-122.47-106.41,220.37,97.79,62.38,81.41c45.56,21.84,89.31,43.86,130.96,65.85,30.63-30.41,68.47-54.51,112.09-69.32,22.68-7.7,45.64-12.45,68.48-14.48-38.38,24.39-69.82,57-92.75,94.61,51.85-46.47,120.33-74.75,195.43-74.75,23.95,0,47.22,2.89,69.5,8.32-82.36,20.04-151.1,74.88-189.75,148.06,77.94,47.75,143.4,93.92,193.07,136.25,6.19-.04,12.27-.16,18.23-.36l108.34-262.09c-98.83-105.24-277.8-226.91-502.18-337.78Z"/><path class="cls-6" d="M157.35,709.36l105.3-286.49c-12.58-1.56-24.92-2.93-36.97-4.08l-16.36,78.87h.02s-62.04,209.76-62.04,209.76c3.33,.63,6.68,1.28,10.05,1.94Z"/><g><g class="cls-29"><polygon class="cls-22" points="419.81 1723.38 570.16 1314.29 606.4 1322.04 419.81 1723.38"/></g><g><polygon class="cls-27" points="713.93 1029.4 606.38 1322.04 606.4 1322.04 419.81 1723.37 570.1 1314.46 570.08 1314.46 715.49 1001.7 720.99 903.68 419.15 1724.94 700.43 1270.18 713.93 1029.4"/><g class="cls-29"><polygon class="cls-22" points="716.11 1000.14 570.08 1314.24 606.32 1321.99 714.58 1027.42 716.11 1000.14"/></g></g></g><g><path class="cls-10" d="M1271.39,1352.11c-2.83-16.35-4.32-33.16-4.32-50.32,0-137.87,95.23-253.48,223.5-284.68-22.28-5.42-45.55-8.32-69.5-8.32-75.07,0-143.54,28.25-195.39,74.68-27.77,45.53-43.04,98.39-43.01,152.87l88.72,115.77Z"/><path class="cls-14" d="M1271.4,1352.17l-85.75-74.51c2.54,17.62,6.73,35.26,12.66,52.72,25.34,74.6,77.79,132.3,142.63,165.89-35.38-39.82-60.05-89.36-69.54-144.1Z"/><rect class="cls-10" x="1227.95" y="1258.24" width="0" height="112.13" transform="translate(-569.56 1379.19) rotate(-49.01)"/></g><g class="cls-7"><path class="cls-23" d="M846.68,1210.34c6.11,8.43,16.04,13.91,27.24,13.91,6.38,0,12.34-1.77,17.42-4.86,1.12-3.35,1.73-6.94,1.73-10.67,0-7.49-2.45-14.4-6.58-19.99-2.57-.63-5.27-.97-8.04-.97-14.7,0-27.2,9.43-31.77,22.57Z"/></g><g class="cls-29"><path class="cls-25" d="M1184.09,1747.88c5.52,1.54,11.67,.51,16.5-3.33,2.75-2.18,4.71-4.99,5.84-8.06-.66-1.83-1.63-3.58-2.91-5.19-2.56-3.23-5.98-5.37-9.68-6.36-1.33,.61-2.6,1.39-3.79,2.33-6.34,5.03-8.49,13.37-5.97,20.6Z"/></g><g class="cls-29"><path class="cls-26" d="M1010.71,602.17c-.77,5.88,1.2,12.03,5.84,16.41,2.64,2.49,5.8,4.09,9.11,4.8,1.78-.95,3.43-2.2,4.89-3.74,2.93-3.1,4.62-6.92,5.09-10.85-.82-1.27-1.8-2.46-2.95-3.54-6.09-5.75-14.95-6.73-21.98-3.08Z"/></g><g class="cls-29"><path class="cls-21" d="M1361.85,615.56c-11.39-1-23.08,3.27-31.15,12.56-4.59,5.28-7.41,11.5-8.52,17.93,1.97,3.34,4.51,6.43,7.6,9.12,6.21,5.39,13.7,8.34,21.31,8.94,2.38-1.68,4.59-3.67,6.59-5.96,10.58-12.18,11.77-29.33,4.17-42.58Z"/></g><g class="cls-29"><path class="cls-22" d="M1342.44,1251.82c4.29-4.65,6.37-11.23,5.03-17.91-.76-3.8-2.54-7.15-4.98-9.81-2.13-.27-4.35-.2-6.57,.25-4.47,.9-8.3,3.18-11.13,6.32-.07,1.61,.05,3.26,.39,4.91,1.76,8.77,8.88,15.09,17.27,16.24Z"/></g></g></svg>