<?xml version="1.0" encoding="UTF-8"?><svg id="_レイヤー_1" xmlns="http://www.w3.org/2000/svg" xmlns:xlink="http://www.w3.org/1999/xlink" viewBox="0 0 1701.07 1573.93"><defs><style>.cls-1{fill:url(#_名称未設定グラデーション_12);}.cls-1,.cls-2,.cls-3,.cls-4,.cls-5,.cls-6,.cls-7,.cls-8,.cls-9,.cls-10,.cls-11,.cls-12,.cls-13,.cls-14,.cls-15,.cls-16,.cls-17{opacity:.3;}.cls-2{fill:url(#_名称未設定グラデーション_13);}.cls-3{fill:url(#_名称未設定グラデーション_11);}.cls-4{fill:url(#_名称未設定グラデーション_14);}.cls-18{fill:lime;}.cls-19,.cls-14{fill:aqua;}.cls-20,.cls-15{fill:#009245;}.cls-21,.cls-22,.cls-11{fill:#ff0;}.cls-23,.cls-10{fill:#fbb03b;}.cls-24,.cls-9{fill:#8cc63f;}.cls-25,.cls-26,.cls-22,.cls-27{opacity:.2;}.cls-25,.cls-16{fill:#29abe2;}.cls-26,.cls-8{fill:#ff7bac;}.cls-6{fill:url(#_名称未設定グラデーション_5);}.cls-7{fill:url(#_名称未設定グラデーション_3);}.cls-12{fill:#00a99d;}.cls-13{fill:#006837;}.cls-17{fill:#39b54a;}.cls-28{fill:url(#_名称未設定グラデーション_7);}</style><linearGradient id="_名称未設定グラデーション_11" x1="84.15" y1="1346.69" x2="574.88" y2="1058.88" gradientUnits="userSpaceOnUse"><stop offset="0" stop-color="#ff0"/><stop offset=".99" stop-color="#8cc63f"/></linearGradient><linearGradient id="_名称未設定グラデーション_5" x1="84.15" y1="1346.69" x2="574.88" y2="1058.88" gradientUnits="userSpaceOnUse"><stop offset="0" stop-color="#ff0"/><stop offset="1" stop-color="#009245"/></linearGradient><linearGradient id="_名称未設定グラデーション_12" x1="159.01" y1="1298.58" x2="464.73" y2="1119.28" gradientUnits="userSpaceOnUse"><stop offset="0" stop-color="#fbb03b"/><stop offset="1" stop-color="#fcee21"/></linearGradient><linearGradient id="_名称未設定グラデーション_7" x1="117.02" y1="1129.01" x2="594.91" y2="1129.01" gradientUnits="userSpaceOnUse"><stop offset="0" stop-color="aqua"/><stop offset="1" stop-color="#39b54a" stop-opacity=".3"/></linearGradient><linearGradient id="_名称未設定グラデーション_3" x1="80.61" y1="559.04" x2="276.19" y2="559.04" gradientUnits="userSpaceOnUse"><stop offset="0" stop-color="#ff0"/><stop offset="1" stop-color="#8cc63f"/></linearGradient><linearGradient id="_名称未設定グラデーション_13" x1="279.26" y1="870.76" x2="1701.07" y2="870.76" gradientUnits="userSpaceOnUse"><stop offset="0" stop-color="#ff0"/><stop offset="1" stop-color="#006837"/></linearGradient><linearGradient id="_名称未設定グラデーション_14" x1="227.91" y1="564.08" x2="343.26" y2="564.08" gradientUnits="userSpaceOnUse"><stop offset="0" stop-color="#ff0"/><stop offset="1" stop-color="#8cc63f"/></linearGradient></defs><path class="cls-3" d="M470.12,1008.35l-185.66-67.58-185.66,67.58L0,1179.45l34.31,194.58,151.35,127h197.58l151.35-127,34.31-194.58-98.79-171.11Zm-30.04,307.56l-94.02,78.89h-122.73l-94.02-78.89-21.31-120.87,61.37-106.29,115.33-41.98,115.33,41.98,61.37,106.29-21.31,120.87Z"/><path class="cls-6" d="M470.12,1008.35l-185.66-67.58-185.66,67.58L0,1179.45l34.31,194.58,151.35,127h197.58l151.35-127,34.31-194.58-98.79-171.11Zm39.7,350.1l-136.13,114.23H195.99l-136.13-114.23-30.86-175,88.85-153.9,166.99-60.78,166.99,60.78,88.85,153.9-30.86,175Z"/><path class="cls-1" d="M399.95,1088.65l-116-41.85-116,41.85-61.72,105.98,21.44,120.51,94.56,78.66h123.44l94.56-78.66,21.44-120.51-61.72-105.98Zm24.8,216.84l-85.05,70.75h-111.02l-85.05-70.75-19.28-108.39,55.51-95.32,104.33-37.64,104.33,37.64,55.51,95.32-19.28,108.39Z"/><polygon class="cls-28" points="496.12 975.35 310.45 907.77 124.79 975.35 117.02 988.81 298.45 922.77 484.12 990.35 582.91 1161.45 549.62 1350.24 560.6 1341.03 594.91 1146.45 496.12 975.35"/><polygon class="cls-14" points="1263.84 526.3 1062.92 812.67 1297.99 540.53 1297.97 540.52 1297.89 540.63 1263.84 526.3"/><polygon class="cls-14" points="1263.82 526.29 1263.84 526.3 1263.92 526.18 1297.97 540.52 1447.27 327.73 1449.72 311.08 1263.82 526.29"/><polygon class="cls-10" points="1498.9 254.15 1453.39 306.83 1451.13 322.23 1498.9 254.15"/><polygon class="cls-10" points="1425.15 499.07 1484.43 95.56 1481.51 94.69 1419.33 517.91 1600.25 130.29 1597.64 129.5 1425.15 499.07"/><polygon class="cls-14" points="1503.9 330.33 1494.46 346.21 1494.48 346.22 1435.99 425.25 1425.15 499.07 1503.9 330.33"/><polygon class="cls-16" points="1677.87 299.28 1577.11 207.22 1517.75 307.04 1420.62 515.14 1677.87 299.28"/><polygon class="cls-16" points="1432.19 430.39 1304.5 602.94 1293.15 622.1 1419.61 515.99 1432.19 430.39"/><polygon class="cls-8" points="1492.48 349.22 1492.46 349.21 1492.39 349.33 1457.35 337.6 1446.08 356.56 1435.94 425.62 1492.48 349.22"/><polygon class="cls-26" points="1286.4 627.7 1432.13 430.76 1442.03 363.37 1283.35 630.24 1286.4 627.7"/><polygon class="cls-8" points="1492.46 349.21 1504.69 328.64 1574.25 179.6 1457.33 337.6 1457.35 337.6 1457.43 337.48 1492.46 349.21"/><polygon class="cls-13" points="1671.25 48.53 1582.32 168.7 1518.54 305.35 1671.25 48.53"/><polygon class="cls-22" points="1432.85 309.43 1285.74 626.82 1442.13 362.74 1449.41 313.14 1432.85 309.43"/><polygon class="cls-11" points="1468.96 317.39 1468.9 317.52 1452.36 313.81 1446.18 355.89 1468.98 317.39 1468.96 317.39"/><polygon class="cls-11" points="1468.96 317.39 1616.07 0 1459.66 264.11 1452.38 313.67 1468.96 317.39"/><polygon class="cls-11" points="1449.43 313.01 1455.61 270.96 1432.83 309.42 1432.85 309.43 1432.91 309.3 1449.43 313.01"/><polygon class="cls-16" points="1278.99 562.53 1057.83 818.56 1287.31 626 1390.26 403.91 1278.97 562.52 1278.99 562.53"/><polygon class="cls-12" points="1459.62 243.66 1255.92 535.45 1414.25 352.15 1423.85 331.43 1423.83 331.42 1454.28 280.01 1455.61 270.96 1455.61 270.96 1459.62 243.66"/><polygon class="cls-13" points="1459.66 264.11 1459.66 264.11 1458.34 273.16 1525.76 159.31 1519.76 153.83 1464.12 233.78 1459.7 263.88 1459.66 264.11"/><polygon class="cls-11" points="1442.03 363.37 1446.08 356.56 1446.18 355.89 1442.13 362.74 1442.03 363.37"/><polygon class="cls-11" points="1449.43 313.01 1449.41 313.14 1452.36 313.81 1452.38 313.67 1449.43 313.01"/><path class="cls-7" d="M252.66,495.93h-.02s23.55-79.62,23.55-79.62c-31.49-2.17-60.87-2.8-87.83-1.84l-107.75,260.65c4.13,4.42,8.4,8.87,12.81,13.35,34.93,2.82,73.83,8.06,116.08,15.58l43.17-208.12Z"/><g class="cls-5"><polygon class="cls-18" points="163.91 924.8 252.7 496.75 289.95 498.66 163.91 924.8"/><polygon class="cls-18" points="378.68 70.79 289.89 498.84 252.64 496.93 378.68 70.79"/></g><g><path class="cls-15" d="M1263.29,1236.35c-.07-99.44,50.88-193.5,135.7-247.41-22.84,2.03-45.81,6.78-68.48,14.48-65.96,22.4-118.71,66.02-153.27,120.63l86.05,112.29Z"/><polygon class="cls-13" points="1266.26 1277.55 1219.33 1236.77 1266.26 1277.55 1266.26 1277.55"/><path class="cls-17" d="M1278.92,1330.38c-5.93-17.46-10.1-35.09-12.64-52.71l-115.61-100.45c-23.24,61.37-26.12,130.87-3.36,197.86,52.04,153.22,218.44,235.24,371.67,183.2,22.68-7.7,43.78-17.93,63.13-30.23-131.49,11.7-258.84-67.13-303.18-197.68Z"/></g><g><g class="cls-27"><polygon class="cls-18" points="1350.88 1351.08 1020.89 1064.35 1040.77 1032.79 1350.88 1351.08"/></g><g><polygon class="cls-25" points="804.71 827.7 1040.76 1032.8 1040.77 1032.79 1350.88 1351.08 1021.03 1064.47 1021.02 1064.48 779.35 816.45 689.64 776.64 1352.11 1352.26 1025.08 925.49 804.71 827.7"/><g class="cls-27"><polygon class="cls-18" points="778.31 815.38 1021.02 1064.48 1040.9 1032.92 803.28 826.46 778.31 815.38"/></g></g></g><path class="cls-2" d="M1198.89,701.19l-140.41,117.82-.56,.65,.31-.44-.39,.33,.86-1,97.04-138.3c-51.71-24.6-105.6-48.56-161.29-71.58-195.81-80.95-384.14-137.99-543.4-168.58v.08s-171.78,277.71-171.78,277.71c153.34,33.32,340.99,91.88,540.18,171.54l-129.81-112.79,89.71,39.81,91.48,93.89h0l-92.52-94.96,24.97,11.08,123.9,107.65s0,0,0,0l-122.47-106.41,220.37,97.79,62.38,81.41c45.56,21.84,89.31,43.86,130.96,65.85,30.63-30.41,68.47-54.51,112.09-69.32,22.68-7.7,45.64-12.45,68.48-14.48-38.38,24.39-69.82,57-92.75,94.61,51.85-46.47,120.33-74.75,195.43-74.75,23.95,0,47.22,2.89,69.5,8.32-82.36,20.04-151.1,74.88-189.75,148.06,77.94,47.75,143.4,93.92,193.07,136.25,6.19-.04,12.27-.16,18.23-.36l108.34-262.09c-98.83-105.24-277.8-226.91-502.18-337.78Z"/><path class="cls-4" d="M237.96,709.36l105.3-286.49c-12.58-1.56-24.92-2.93-36.97-4.08l-16.36,78.87h.02s-62.04,209.76-62.04,209.76c3.33,.63,6.68,1.28,10.05,1.94Z"/><g><g class="cls-27"><polygon class="cls-20" points="171.42 891.38 321.77 482.29 358.01 490.04 171.42 891.38"/></g><g><polygon class="cls-25" points="465.54 197.4 357.99 490.04 358.01 490.04 171.42 891.37 321.71 482.46 321.69 482.46 467.1 169.7 472.59 71.68 170.75 892.94 452.04 438.18 465.54 197.4"/><g class="cls-27"><polygon class="cls-20" points="467.72 168.14 321.69 482.24 357.93 489.99 466.19 195.42 467.72 168.14"/></g></g></g><g><path class="cls-9" d="M1352,1352.11c-2.83-16.35-4.32-33.16-4.32-50.32,0-137.87,95.23-253.48,223.5-284.68-22.28-5.42-45.55-8.32-69.5-8.32-75.07,0-143.54,28.25-195.39,74.68-27.77,45.53-43.04,98.39-43.01,152.87l88.72,115.77Z"/><path class="cls-13" d="M1352.01,1352.17l-85.75-74.51c2.54,17.62,6.73,35.26,12.66,52.72,25.34,74.6,77.79,132.3,142.63,165.89-35.38-39.82-60.05-89.36-69.54-144.1Z"/><rect class="cls-9" x="1308.56" y="1258.24" width="0" height="112.13" transform="translate(-541.82 1440.04) rotate(-49.01)"/></g><g class="cls-5"><path class="cls-21" d="M262.29,861.34c6.11,8.43,16.04,13.91,27.24,13.91,6.38,0,12.34-1.77,17.42-4.86,1.12-3.35,1.73-6.94,1.73-10.67,0-7.49-2.45-14.4-6.58-19.99-2.57-.63-5.27-.97-8.04-.97-14.7,0-27.2,9.43-31.77,22.57Z"/></g><g class="cls-27"><path class="cls-23" d="M632.7,1256.88c5.52,1.54,11.67,.51,16.5-3.33,2.75-2.18,4.71-4.99,5.84-8.06-.66-1.83-1.63-3.58-2.91-5.19-2.56-3.23-5.98-5.37-9.68-6.36-1.33,.61-2.6,1.39-3.79,2.33-6.34,5.03-8.49,13.37-5.97,20.6Z"/></g><g class="cls-27"><path class="cls-24" d="M676.32,370.17c-.77,5.88,1.2,12.03,5.84,16.41,2.64,2.49,5.8,4.09,9.11,4.8,1.78-.95,3.43-2.2,4.89-3.74,2.93-3.1,4.62-6.92,5.09-10.85-.82-1.27-1.8-2.46-2.95-3.54-6.09-5.75-14.95-6.73-21.98-3.08Z"/></g><g class="cls-27"><path class="cls-19" d="M1586.45,483.56c-11.39-1-23.08,3.27-31.15,12.56-4.59,5.28-7.41,11.5-8.52,17.93,1.97,3.34,4.51,6.43,7.6,9.12,6.21,5.39,13.7,8.34,21.31,8.94,2.38-1.68,4.59-3.67,6.59-5.96,10.58-12.18,11.77-29.33,4.17-42.58Z"/></g><g class="cls-27"><path class="cls-20" d="M1423.05,1251.82c4.29-4.65,6.37-11.23,5.03-17.91-.76-3.8-2.54-7.15-4.98-9.81-2.13-.27-4.35-.2-6.57,.25-4.47,.9-8.3,3.18-11.13,6.32-.07,1.61,.05,3.26,.39,4.91,1.76,8.77,8.88,15.09,17.27,16.24Z"/></g></svg>